<svg xmlns="http://www.w3.org/2000/svg" viewBox="0 0 168.97 34.41"><defs><style>.cls-1{fill:#595a5c;}.cls-2{fill:#97dbf8;}.cls-3{fill:#eaa0c6;}.cls-4{fill:#5a4093;}.cls-5{fill:#bbafcd;}.cls-6{fill:#00b26b;}.cls-7{fill:#a7d05c;}.cls-8{fill:#ffcc5b;}.cls-9{fill:#ed1c24;}.cls-10{fill:#a9b54e;}.cls-11{fill:#c8d3ac;}.cls-12{fill:#19814b;}.cls-13{fill:#62a885;}.cls-14{fill:#8b1726;}.cls-15{fill:#cd4f5f;}.cls-16{fill:#47276f;}.cls-17{fill:#9972b2;}.cls-18{fill:#a5d5a5;}.cls-19{fill:#f4b094;}.cls-20{fill:#ef5ca1;}.cls-21{fill:#fcb141;}.cls-22{fill:#70cfef;}.cls-23{fill:#8dc63f;}</style></defs><g id="Layer_2" data-name="Layer 2"><g id="Layer_1-2" data-name="Layer 1"><path class="cls-1" d="M69.31,9.55A12.88,12.88,0,0,0,66,9.24H63v17.6h2.67V19.69h1.21a6.41,6.41,0,0,0,4.37-1.43,4.77,4.77,0,0,0,1.63-3.81,5,5,0,0,0-1.53-3.75A4.13,4.13,0,0,0,69.31,9.55Zm-2.69,7.67h-1V11.69h.86q3.77,0,3.77,2.71C70.26,16.27,69,17.22,66.62,17.22Z"/><polygon class="cls-1" points="149.8 16.12 142.21 16.12 142.21 9.24 139.55 9.24 139.55 26.84 142.21 26.84 142.21 18.61 149.8 18.61 149.8 26.84 152.45 26.84 152.45 9.24 149.8 9.24 149.8 16.12"/><polygon class="cls-1" points="160.97 17.2 168.93 9.24 165.38 9.24 158.54 16.25 158.54 9.24 155.87 9.24 155.87 26.84 158.54 26.84 158.54 19.54 159.09 19.01 165.42 26.84 168.97 26.84 160.97 17.2"/><polygon class="cls-1" points="77.51 9.22 74.95 9.22 74.95 27.18 86.32 15.69 86.32 26.82 88.89 26.82 88.89 9.01 77.51 20.28 77.51 9.22"/><polygon class="cls-1" points="91.2 26.82 93.85 26.82 93.85 11.71 100.01 11.71 100.01 9.22 91.2 9.22 91.2 26.82"/><path class="cls-1" d="M113.81,16.38h-1.23V11.75h6V9.22h-8.62V26.84h3a13.86,13.86,0,0,0,3.35-.31,4.84,4.84,0,0,0,2-1.17,5.08,5.08,0,0,0,1.5-3.75,4.76,4.76,0,0,0-1.62-3.82A6.4,6.4,0,0,0,113.81,16.38Zm-.35,8h-.88V18.83h1c2.45,0,3.66,1,3.66,2.83S116,24.37,113.46,24.37Z"/><path class="cls-1" d="M120.54,26.71h2.84l2-4.28h7.55l1.85,4.28h2.89L129.25,9.15Zm5.93-6.77,2.73-5.43,2.61,5.43Z"/><path class="cls-1" d="M43.57,26.71h2.87l2-4.28h7.52l1.85,4.28h2.91L52.28,9.15Zm5.93-6.77,2.74-5.43,2.6,5.43Z"/><path class="cls-2" d="M18.05,0h0"/><path class="cls-3" d="M17.86,0h0"/><path class="cls-3" d="M34.29,33l0,0,0,0"/><path class="cls-3" d="M34.43,32.82c.12-.12.24-.24.35-.37l-.06.06c-.09.11-.19.21-.29.31"/><path class="cls-3" d="M35.09,32.06l-.28.35.28-.35"/><path class="cls-4" d="M15.69.54a5.57,5.57,0,0,0-2.77,7.37l3.44,6.4a5.76,5.76,0,0,1,1-.22l.12,0,.36,0h.49l.37,0,.12,0a6.18,6.18,0,0,1,.93.2l3.43-6.38A5.57,5.57,0,0,0,20.41.54L20.3.49A5.64,5.64,0,0,0,18.24,0h-.38a5.64,5.64,0,0,0-2.07.49Zm6.52,5.18a4.14,4.14,0,0,1-8.27-.42,4.3,4.3,0,0,1,4.35-3.93,4.06,4.06,0,0,1,3.92,4.35"/><path class="cls-5" d="M13.94,5.3a4.14,4.14,0,0,0,8.27.42,4.06,4.06,0,0,0-3.92-4.35A4.3,4.3,0,0,0,13.94,5.3"/><path class="cls-6" d="M10.69,31.14,14.52,24l-.19-.14A5.57,5.57,0,0,1,13.81,16l.07-.08c.12-.14.25-.27.38-.4l-12.36,9a5.57,5.57,0,0,0-.52,7.86l.07.08A5.55,5.55,0,0,0,5.23,34.4H6a5.86,5.86,0,0,0,4.68-3.26M5.84,32.88a4.14,4.14,0,1,1,3.92-4.34,4.14,4.14,0,0,1-3.92,4.34"/><path class="cls-7" d="M18.33,14l.37,0-.37,0"/><path class="cls-7" d="M17.84,14h0"/><path class="cls-7" d="M17.36,14.09l.12,0-.12,0"/><path class="cls-7" d="M19.75,14.29a6.18,6.18,0,0,0-.93-.2,5.19,5.19,0,0,1,.93.21Z"/><path class="cls-8" d="M35.26,31.8c0,.09-.11.17-.17.26.06-.09.12-.17.17-.26"/><path class="cls-8" d="M34.43,32.82l-.14.13.14-.13"/><path class="cls-8" d="M34.81,32.41l0,0,0,0v0"/><path class="cls-9" d="M35.09,32.06c.06-.09.12-.17.17-.26l.09-.12a5.57,5.57,0,0,0,.3-5.18l-.55-1a5.41,5.41,0,0,0-.83-.9l-12.36-9a4.75,4.75,0,0,1,.38.4l.08.08a5.57,5.57,0,0,1-.52,7.86l-.25.18,3.8,7.08A6,6,0,0,0,29,34.2l.12,0,.33.08.25,0,.24,0,.3,0h.5l.34,0,.13,0a5.4,5.4,0,0,0,1.54-.44l.11-.05A5.3,5.3,0,0,0,34.25,33l0,0,.14-.13c.1-.1.2-.2.29-.31l.06-.06,0,0,.28-.35M34.6,29a4.14,4.14,0,0,1-8.27-.41,4.3,4.3,0,0,1,4.35-3.93A4,4,0,0,1,34.6,29"/><path class="cls-8" d="M18.09,14h0"/><path class="cls-8" d="M18.7,14.07l.12,0-.12,0"/><path class="cls-8" d="M17.36,14.09a5.76,5.76,0,0,0-1,.22h0a5,5,0,0,1,1-.23"/><path class="cls-8" d="M17.48,14.07l.37,0-.37,0"/><path class="cls-10" d="M20.81,22.6a4.11,4.11,0,0,1-5.5,0L14.52,24l3.57,2.6,3.51-2.56Z"/><path class="cls-11" d="M15.31,22.56a4.11,4.11,0,0,0,5.5,0l-2.76-5.14Z"/><path class="cls-12" d="M17,15.55l-.66-1.23h0a5.76,5.76,0,0,0-2.1,1.23c-.13.13-.26.26-.38.4l-.07.08a5.57,5.57,0,0,0,.52,7.86l.19.14.79-1.46a4.08,4.08,0,0,1,1.71-7"/><path class="cls-13" d="M17,15.55a4.08,4.08,0,0,0-1.71,7l2.74-5.1Z"/><path class="cls-14" d="M22.37,16l-.08-.08a4.75,4.75,0,0,0-.38-.4,5.49,5.49,0,0,0-2.16-1.25h0l-.62,1.15a4.17,4.17,0,0,1,1.68,7.15l.79,1.46.25-.18A5.57,5.57,0,0,0,22.37,16"/><path class="cls-15" d="M22.21,19.7a4.12,4.12,0,0,0-3.08-4.25l-1.08,2,2.76,5.14a4.09,4.09,0,0,0,1.4-2.9"/><path class="cls-16" d="M17,15.55a4.43,4.43,0,0,1,1.27-.19,2.93,2.93,0,0,1,.84.09l.62-1.15a5.19,5.19,0,0,0-.93-.21l-.12,0-.37,0h-.49l-.36,0-.12,0a5,5,0,0,0-1,.23Z"/><path class="cls-17" d="M17,15.55l1,1.91,1.08-2a2.93,2.93,0,0,0-.84-.09,4.43,4.43,0,0,0-1.27.19"/><path class="cls-18" d="M9.76,28.54a4.14,4.14,0,1,0-3.92,4.34,4.14,4.14,0,0,0,3.92-4.34"/><path class="cls-19" d="M30.68,24.61a4.3,4.3,0,0,0-4.35,3.93A4.14,4.14,0,0,0,34.6,29a4,4,0,0,0-3.92-4.34"/><path class="cls-20" d="M23.21,3.35h0a5.54,5.54,0,0,1,0,4.56l-3.43,6.38a5.49,5.49,0,0,1,2.16,1.25l12.36,9a5.41,5.41,0,0,1,.83.9Z"/><path class="cls-21" d="M26.87,33a6.43,6.43,0,0,1-1.47-1.88l-3.8-7.08-3.51,2.57L26.86,33h0Z"/><path class="cls-22" d="M.84,25.81A5.91,5.91,0,0,1,1.9,24.57l12.36-9a5.76,5.76,0,0,1,2.1-1.23l-3.44-6.4a5.55,5.55,0,0,1,0-4.55h0L.82,25.81Z"/><path class="cls-23" d="M9.31,33l8.78-6.37L14.52,24l-3.83,7.12a6.28,6.28,0,0,1-1.51,1.92L9.31,33"/></g></g></svg>